<svg class="border shadow-md dark:border-slate-700" viewBox="0 0 986.48 554.895" style="width: 986.48px; height: 554.895px;" xmlns="http://www.w3.org/2000/svg" preserveAspectRatio="none"><rect class="bg" id="bg" x="0" y="0" width="986.48" height="554.895" fill="#ffffff"/><g transform="rotate(0 493.24 277.4475)"><path d="M -296.62 -6.99 S -275.00 -35.99&#10;            0.00 -6.99 138.31 -25.49&#10;            296.62 -6.99 434.93 -29.99&#10;            593.24 -6.99 600.86 -27.99&#10;            889.86 -6.99 1028.17 -25.49&#10;            1186.48 -6.99 1324.79 -25.99&#10;            1483.10 -6.99 h 110 V 754.895 H -296.62 Z" fill="#73C7FF" id="-1"/><path d="M -296.62 30.00 S -158.31 2.00&#10;            0.00 30.00 57.62 11.50&#10;            296.62 30.00 434.93 4.00&#10;            593.24 30.00 731.55 11.50&#10;            889.86 30.00 1028.17 5.00&#10;            1186.48 30.00 1324.79 -1.00&#10;            1483.10 30.00 h 110 V 754.895 H -296.62 Z" fill="#6ebbf6" id="0"/><path d="M -296.62 66.99 S -158.31 42.99&#10;            0.00 66.99 72.62 34.99&#10;            296.62 66.99 434.93 48.50&#10;            593.24 66.99 731.55 36.99&#10;            889.86 66.99 1028.17 48.50&#10;            1186.48 66.99 1324.79 48.50&#10;            1483.10 66.99 h 110 V 754.895 H -296.62 Z" fill="#69afed" id="1"/><path d="M -296.62 103.99 S -248.00 85.49&#10;            0.00 103.99 138.31 80.99&#10;            296.62 103.99 333.24 85.49&#10;            593.24 103.99 731.55 71.99&#10;            889.86 103.99 984.48 73.99&#10;            1186.48 103.99 1262.10 77.99&#10;            1483.10 103.99 h 110 V 754.895 H -296.62 Z" fill="#64a3e4" id="2"/><path d="M -296.62 140.98 S -158.31 120.98&#10;            0.00 140.98 138.31 122.48&#10;            296.62 140.98 434.93 122.48&#10;            593.24 140.98 731.55 114.98&#10;            889.86 140.98 905.48 122.48&#10;            1186.48 140.98 1324.79 122.48&#10;            1483.10 140.98 h 110 V 754.895 H -296.62 Z" fill="#5f97db" id="3"/><path d="M -296.62 177.97 S -199.00 159.48&#10;            0.00 177.97 76.62 159.48&#10;            296.62 177.97 434.93 157.97&#10;            593.24 177.97 731.55 159.48&#10;            889.86 177.97 1028.17 159.48&#10;            1186.48 177.97 1271.10 143.97&#10;            1483.10 177.97 h 110 V 754.895 H -296.62 Z" fill="#5a8bd2" id="4"/><path d="M -296.62 214.97 S -191.00 196.47&#10;            0.00 214.97 109.62 196.47&#10;            296.62 214.97 367.24 188.97&#10;            593.24 214.97 731.55 196.47&#10;            889.86 214.97 958.48 191.97&#10;            1186.48 214.97 1255.10 196.47&#10;            1483.10 214.97 h 110 V 754.895 H -296.62 Z" fill="#557fc9" id="5"/><path d="M -296.62 251.96 S -158.31 227.96&#10;            0.00 251.96 138.31 233.46&#10;            296.62 251.96 434.93 230.96&#10;            593.24 251.96 731.55 228.96&#10;            889.86 251.96 1028.17 215.96&#10;            1186.48 251.96 1198.10 221.96&#10;            1483.10 251.96 h 110 V 754.895 H -296.62 Z" fill="#5073c0" id="6"/><path d="M -296.62 288.95 S -158.31 255.95&#10;            0.00 288.95 138.31 256.95&#10;            296.62 288.95 419.24 254.95&#10;            593.24 288.95 700.86 270.45&#10;            889.86 288.95 1028.17 268.95&#10;            1186.48 288.95 1299.10 270.45&#10;            1483.10 288.95 h 110 V 754.895 H -296.62 Z" fill="#4b67b7" id="7"/><path d="M -296.62 325.94 S -158.31 293.94&#10;            0.00 325.94 138.31 307.45&#10;            296.62 325.94 434.93 307.45&#10;            593.24 325.94 701.86 307.45&#10;            889.86 325.94 1028.17 290.94&#10;            1186.48 325.94 1324.79 307.45&#10;            1483.10 325.94 h 110 V 754.895 H -296.62 Z" fill="#465bae" id="8"/><path d="M -296.62 362.94 S -158.31 342.94&#10;            0.00 362.94 72.62 329.94&#10;            296.62 362.94 434.93 344.44&#10;            593.24 362.94 731.55 344.44&#10;            889.86 362.94 1022.48 344.44&#10;            1186.48 362.94 1181.10 341.94&#10;            1483.10 362.94 h 110 V 754.895 H -296.62 Z" fill="#414fa5" id="9"/><path id="10" d="M -296.62 399.93 S -194.00 363.93&#10;            0.00 399.93 138.31 381.43&#10;            296.62 399.93 305.24 381.43&#10;            593.24 399.93 731.55 381.43&#10;            889.86 399.93 1028.17 376.93&#10;            1186.48 399.93 1314.10 367.93&#10;            1483.10 399.93 h 110 V 754.895 H -296.62 Z" fill="#3c439c"/><path id="11" d="M -296.62 436.92 S -158.31 413.92&#10;            0.00 436.92 27.62 418.43&#10;            296.62 436.92 434.93 418.43&#10;            593.24 436.92 624.86 412.92&#10;            889.86 436.92 892.48 405.92&#10;            1186.48 436.92 1212.10 401.92&#10;            1483.10 436.92 h 110 V 754.895 H -296.62 Z" fill="#373793"/><path id="12" d="M -296.62 473.92 S -158.31 446.92&#10;            0.00 473.92 78.62 455.42&#10;            296.62 473.92 347.24 455.42&#10;            593.24 473.92 731.55 439.92&#10;            889.86 473.92 954.48 455.42&#10;            1186.48 473.92 1272.10 438.92&#10;            1483.10 473.92 h 110 V 754.895 H -296.62 Z" fill="#322b8a"/><path id="13" d="M -296.62 510.91 S -158.31 492.41&#10;            0.00 510.91 34.62 486.91&#10;            296.62 510.91 302.24 476.91&#10;            593.24 510.91 731.55 479.91&#10;            889.86 510.91 914.48 480.91&#10;            1186.48 510.91 1324.79 492.41&#10;            1483.10 510.91 h 110 V 754.895 H -296.62 Z" fill="#2d1f81"/><path id="14" d="M -296.62 547.90 S -158.31 525.90&#10;            0.00 547.90 138.31 529.41&#10;            296.62 547.90 432.24 523.90&#10;            593.24 547.90 610.86 529.41&#10;            889.86 547.90 886.48 529.41&#10;            1186.48 547.90 1324.79 529.41&#10;            1483.10 547.90 h 110 V 754.895 H -296.62 Z" fill="#281378"/></g></svg>